ply
format ascii 1.0
comment VCGLIB generated
element vertex 37
property float x
property float y
property float z
property float nx
property float ny
property float nz
property float texture_u
property float texture_v
element face 36
property list uchar int vertex_indices
property list uchar float texcoord
end_header
0 6.55671e-08 -1.5 0 9.13849e-08 -1 0.5 0
2 -6.55671e-08 1.5 1 0 0 1 1
1.96962 -0.347296 1.5 0.984808 -0.173648 -7.5904e-09 0.992404 1
1.87939 -0.68404 1.5 0.939693 -0.34202 -1.49502e-08 0.969846 1
1.73205 -1 1.5 0.866025 -0.5 -2.18557e-08 0.933013 1
1.53209 -1.28558 1.5 0.766044 -0.642788 -2.80971e-08 0.883022 1
1.28558 -1.53209 1.5 0.642787 -0.766044 -3.34849e-08 0.821394 1
1 -1.73205 1.5 0.5 -0.866025 -3.78552e-08 0.75 1
0.68404 -1.87939 1.5 0.34202 -0.939693 -4.10753e-08 0.67101 1
0.347296 -1.96962 1.5 0.173648 -0.984808 -4.30473e-08 0.586824 1
1.22465e-16 -2 1.5 0 -1 -4.37114e-08 0.5 1
-0.347296 -1.96962 1.5 -0.173648 -0.984808 -4.30473e-08 0.413176 1
-0.68404 -1.87939 1.5 -0.34202 -0.939693 -4.10753e-08 0.32899 1
-1 -1.73205 1.5 -0.5 -0.866025 -3.78552e-08 0.25 1
-1.28558 -1.53209 1.5 -0.642787 -0.766044 -3.34849e-08 0.178606 1
-1.53209 -1.28558 1.5 -0.766044 -0.642788 -2.80971e-08 0.116978 1
-1.73205 -1 1.5 -0.866025 -0.5 -2.18557e-08 0.0669873 1
-1.87939 -0.68404 1.5 -0.939693 -0.34202 -1.49502e-08 0.0301537 1
-1.96962 -0.347296 1.5 -0.984808 -0.173648 -7.5904e-09 0.00759614 1
-2 -6.55671e-08 1.5 -1 -0 0 0 1
-1.96962 0.347296 1.5 -0.984808 0.173648 7.5904e-09 0.00759614 1
-1.87939 0.68404 1.5 -0.939693 0.34202 1.49502e-08 0.0301537 1
-1.73205 1 1.5 -0.866025 0.5 2.18557e-08 0.0669873 1
-1.53209 1.28558 1.5 -0.766044 0.642788 2.80971e-08 0.116978 1
-1.28558 1.53209 1.5 -0.642787 0.766044 3.34849e-08 0.178606 1
-1 1.73205 1.5 -0.5 0.866025 3.78552e-08 0.25 1
-0.68404 1.87939 1.5 -0.34202 0.939693 4.10753e-08 0.32899 1
-0.347296 1.96962 1.5 -0.173648 0.984808 4.30473e-08 0.413176 1
-3.67394e-16 2 1.5 0 1 4.37114e-08 0.5 1
0.347296 1.96962 1.5 0.173648 0.984808 4.30473e-08 0.586824 1
0.68404 1.87939 1.5 0.34202 0.939693 4.10753e-08 0.67101 1
1 1.73205 1.5 0.5 0.866025 3.78552e-08 0.75 1
1.28558 1.53209 1.5 0.642787 0.766044 3.34849e-08 0.821394 1
1.53209 1.28558 1.5 0.766044 0.642788 2.80971e-08 0.883022 1
1.73205 1 1.5 0.866025 0.5 2.18557e-08 0.933013 1
1.87939 0.68404 1.5 0.939693 0.34202 1.49502e-08 0.969846 1
1.96962 0.347296 1.5 0.984808 0.173648 7.5904e-09 0.992404 1
3 0 1 2 6 0.5 0 1 1 0.992404 1 
3 0 2 3 6 0.5 0 0.992404 1 0.969846 1 
3 0 3 4 6 0.5 0 0.969846 1 0.933013 1 
3 0 4 5 6 0.5 0 0.933013 1 0.883022 1 
3 0 5 6 6 0.5 0 0.883022 1 0.821394 1 
3 0 6 7 6 0.5 0 0.821394 1 0.75 1 
3 0 7 8 6 0.5 0 0.75 1 0.67101 1 
3 0 8 9 6 0.5 0 0.67101 1 0.586824 1 
3 0 9 10 6 0.5 0 0.586824 1 0.5 1 
3 0 10 11 6 0.5 0 0.5 1 0.413176 1 
3 0 11 12 6 0.5 0 0.413176 1 0.32899 1 
3 0 12 13 6 0.5 0 0.32899 1 0.25 1 
3 0 13 14 6 0.5 0 0.25 1 0.178606 1 
3 0 14 15 6 0.5 0 0.178606 1 0.116978 1 
3 0 15 16 6 0.5 0 0.116978 1 0.0669873 1 
3 0 16 17 6 0.5 0 0.0669873 1 0.0301537 1 
3 0 17 18 6 0.5 0 0.0301537 1 0.00759614 1 
3 0 18 19 6 0.5 0 0.00759614 1 0 1 
3 0 19 20 6 0.5 0 0 1 0.00759614 1 
3 0 20 21 6 0.5 0 0.00759614 1 0.0301537 1 
3 0 21 22 6 0.5 0 0.0301537 1 0.0669873 1 
3 0 22 23 6 0.5 0 0.0669873 1 0.116978 1 
3 0 23 24 6 0.5 0 0.116978 1 0.178606 1 
3 0 24 25 6 0.5 0 0.178606 1 0.25 1 
3 0 25 26 6 0.5 0 0.25 1 0.32899 1 
3 0 26 27 6 0.5 0 0.32899 1 0.413176 1 
3 0 27 28 6 0.5 0 0.413176 1 0.5 1 
3 0 28 29 6 0.5 0 0.5 1 0.586824 1 
3 0 29 30 6 0.5 0 0.586824 1 0.67101 1 
3 0 30 31 6 0.5 0 0.67101 1 0.75 1 
3 0 31 32 6 0.5 0 0.75 1 0.821394 1 
3 0 32 33 6 0.5 0 0.821394 1 0.883022 1 
3 0 33 34 6 0.5 0 0.883022 1 0.933013 1 
3 0 34 35 6 0.5 0 0.933013 1 0.969846 1 
3 0 35 36 6 0.5 0 0.969846 1 0.992404 1 
3 0 36 1 6 0.5 0 0.992404 1 1 1 
