ply
format ascii 1.0
comment VCGLIB generated
element vertex 252
property float x
property float y
property float z
property float nx
property float ny
property float nz
property float texture_u
property float texture_v
element face 500
property list uchar int vertex_indices
end_header
0.306541 -0.587778 -0.42252 3.12445 -3.61722 -3.72202 0.782414 0.20482
0.234148 -0.576427 -0.468631 1.66598 -3.22867 -4.93552 0.722893 0.196953
0.223016 0.290633 -0.139328 2.85247 3.15968 4.58581 0.745726 0.597328
0.00648969 0.192244 -0.683569 0.0539597 0.352134 -6.21715 0.5 0.580153
0.174826 0.541048 -0.298773 -0.474929 2.46287 -0.858876 0.670032 0.816388
0.296068 0.51605 -0.44429 5.1246 3.36535 1.11927 0.76804 0.774022
-0.0312507 0.506884 -0.661098 -0.321926 0.709045 -6.1744 0.5 0.807234
0.0497388 0.730625 -0.409466 1.17581 3.27615 5.08436 0.580909 0.883588
0.227096 -0.750829 0.0554342 4.22414 -3.41544 2.85172 0.687527 0.0995889
-0.0458741 -0.697289 0.905836 -2.28694 -3.20271 2.85612 0.5 0.171486
0.0439144 -0.884173 0.0667456 1.05077 -5.45804 1.7794 0.547364 0.0570794
-1.09619e-10 -0.898245 -0.0301609 -0.057078 -6.06854 -0.0534438 0.5 0.0557698
0.412499 0.0534696 -0.595037 3.80842 0.197252 -4.49332 0.873761 0.515271
0.248788 0.215343 -0.648276 1.64627 0.526337 -5.9815 0.79812 0.582495
0.263576 0.478603 -0.605073 3.37025 1.51223 -4.652 0.689611 0.774369
0.111792 -0.868928 0.0174683 2.81768 -5.14858 1.35976 0.643871 0.0792924
0.422725 -0.583529 -0.172543 5.35853 -2.54574 0.0734441 0.910171 0.219418
0.313654 0.014122 0.0227155 3.0088 2.8682 4.50468 0.760519 0.532452
0.171083 0.00659345 0.0861585 1.49611 2.75569 5.35197 0.690195 0.517461
0.13365 0.177186 -0.00898414 1.4325 3.41698 4.97465 0.683138 0.560161
0.367109 -0.511494 -0.432021 3.87923 -2.98348 -3.58383 0.894693 0.275745
0.104486 0.507545 -0.652999 1.13445 0.791423 -6.05577 0.687148 0.713191
0.0927691 -0.455446 0.965706 3.64986 1.0919 3.38642 0.575181 0.28164
0.0188264 -0.393714 0.97338 0.428476 3.15857 3.50203 0.526829 0.288016
0.180961 -0.473822 0.201826 4.08082 0.581695 4.54705 0.636677 0.255163
0.152367 -0.385204 0.795113 4.08345 2.41031 0.932105 0.640666 0.288269
0.399909 -0.182369 0.0391906 4.29277 0.877236 4.23917 0.89851 0.446034
0.312818 -0.0953494 0.0777319 2.93507 2.01551 5.00377 0.763566 0.448905
0.0752965 -1.01075 0.671403 0.431126 -0.47788 -0.160959 0.566079 0.0763742
0.130824 0.785519 -0.58263 3.31516 2.43653 -4.26195 0.597276 0.923711
-3.89067e-09 1.04112 -0.496063 0.00368918 0.894491 0.136351 0.571002 0.948985
0.050958 0.877938 -0.474815 1.88267 1.95462 5.36791 0.577346 0.946869
0.149105 -0.245604 -0.656357 0.0719747 -2.19388 -5.66893 0.682017 0.357476
0.0698838 -0.611784 -0.479078 0.349623 -3.42862 -5.07464 0.664778 0.238153
0.161509 0.795197 -0.529242 4.34798 2.74763 0.159517 0.634508 0.903269
0.454284 -0.117467 -0.0506712 5.13325 1.29614 3.04063 0.943779 0.430291
0.488589 -0.10667 -0.141224 5.83129 1.06527 1.48361 0.974063 0.45701
0.407634 -0.0145499 -0.0449318 4.3735 2.4992 3.48252 0.882147 0.552619
0.443404 0.0197491 -0.144562 5.29261 2.41924 2.18824 0.918486 0.561145
0.496887 -0.209477 -0.424482 5.69247 -0.957851 -1.69393 0.963186 0.345713
0.443566 -0.458384 -0.361334 5.15164 -2.46892 -2.10909 0.911028 0.246768
0.330646 -0.489696 0.0817368 4.46874 -1.16118 4.12208 0.85886 0.259213
0.367099 -0.669955 -0.109801 4.77884 -3.48835 0.733278 0.846011 0.16998
0.28956 -0.210697 0.125439 2.84287 1.01679 5.3258 0.794394 0.357092
0.234563 -0.127756 -0.654915 1.07759 0.827692 -5.77613 0.809134 0.470442
0.384176 -0.16397 -0.58764 3.71921 -1.16909 -4.7313 0.908101 0.463041
0.425244 -0.312852 -0.494374 4.36134 -1.91864 -3.79729 0.944363 0.404911
0.313049 -0.384231 -0.542202 2.38232 -2.60511 -5.02173 0.730857 0.285671
0.187247 -0.834617 -0.0897146 3.29166 -5.07017 -0.453435 0.715994 0.104502
0.245153 -0.186405 -0.661705 4.40088 -0.746009 -3.80865 0.765674 0.407744
0.214615 -0.618066 0.150086 4.65989 -1.47733 3.89726 0.745192 0.230503
0.372222 -0.591598 -0.0121773 4.96802 -2.08432 2.74541 0.814718 0.170189
0.0869927 -0.884842 -0.0863523 1.51763 -5.64721 -0.977246 0.557486 0.0699556
-0.030928 -0.871634 -0.157422 -0.389812 -5.59674 -2.24224 0.5 0.0598701
0.00124267 -0.316969 0.710826 0.113142 5.59207 -1.05713 0.5 0.341823
0.212987 -0.688701 -0.37185 2.04546 -4.56474 -3.52833 0.751149 0.164894
0.311745 0.507308 -0.521159 5.05301 2.57572 -1.26142 0.835162 0.713221
0.321925 -0.699064 -0.246156 3.81448 -4.23234 -1.78281 0.826552 0.158802
0.128653 -0.837793 -0.173541 1.94607 -5.33303 -2.36395 0.66501 0.0981218
0.0696108 -0.803158 -0.265423 0.898626 -5.1524 -3.3059 0.560431 0.095662
0.387486 0.144249 -0.60135 3.46379 0.855502 -4.85624 0.891611 0.582302
0.00176557 -0.0679523 -0.693517 0.0850998 -0.410857 -6.16072 0.5 0.424713
0.126917 -0.359629 0.740327 3.54249 4.06081 -0.538497 0.591235 0.293826
0.124236 -0.478298 0.589216 5.77549 -1.06095 -0.903743 0.613615 0.256944
0.107016 -0.508689 0.411774 5.72526 1.39775 -0.383057 0.603374 0.25825
0.0920432 -0.720638 0.274495 3.87393 -3.28966 3.17972 0.542911 0.161384
-0.026774 -0.417506 0.395055 -2.07716 5.2877 -0.124042 0.5 0.301104
0.0621643 -0.610801 0.966355 2.78731 -2.272 3.65127 0.543987 0.191968
0.0602474 -0.812465 0.188302 2.18281 -4.67263 3.0714 0.584199 0.1124
0.134355 -0.55191 0.276918 5.51374 -0.2246 2.82652 0.61481 0.250946
0.0448201 -0.432545 0.390117 3.38888 4.92426 0.10087 0.598556 0.264323
0.328561 0.434224 -0.371847 5.61874 2.46653 1.17732 0.865808 0.678987
0.413516 0.271682 -0.451688 5.70693 2.36761 0.241084 0.854256 0.67223
0.430289 0.178028 -0.313643 5.47164 2.57423 1.44462 0.903026 0.607231
0.368511 0.253095 -0.260016 4.9339 2.78391 2.56746 0.859749 0.627505
0.462819 -0.340685 -0.0704152 5.61035 -1.10235 2.24289 0.964472 0.311599
0.486305 0.0378449 -0.327919 5.92842 1.63453 0.722193 0.97691 0.506857
0.484403 -0.232881 -0.0929411 5.77898 -0.106168 1.97238 0.982597 0.374428
0.499184 -0.295342 -0.203796 6.09991 -0.762469 0.47942 0.996784 0.402601
0.471969 -0.427164 -0.282705 5.89799 -1.72778 -0.534136 0.971132 0.315453
0.49039 -0.0744689 -0.490742 5.3262 -0.146469 -2.40369 0.987422 0.439963
0.43253 0.191625 -0.532861 5.19836 1.61515 -2.50372 0.922833 0.604125
0.462232 0.145534 -0.466039 5.84101 1.60477 -0.620991 0.955792 0.55186
0.506847 -0.0704402 -0.350713 6.1661 0.482919 -0.0551853 1 0.42944
0.30421 -0.393206 0.122923 3.86388 -0.340914 4.8392 0.758986 0.318
0.421962 -0.269225 0.0162608 4.91235 -0.309533 3.70877 0.879616 0.321978
0.152779 -0.612724 0.747506 4.04524 -1.67799 -1.2281 0.608452 0.184872
0.26747 -0.765825 -0.0424785 4.22587 -4.13365 1.19325 0.800798 0.145748
0.113524 -0.65959 -0.433466 0.725784 -4.28464 -4.4019 0.570784 0.148625
-0.0477565 -0.779861 -0.306557 -0.530978 -4.94932 -3.62449 0.5 0.109943
0.0286179 -0.385724 -0.589956 0.181051 -2.81611 -5.58483 0.5 0.277605
0.207551 -0.214469 -0.695363 -1.12694 -1.78829 -2.50017 0.715467 0.396299
0.197718 -0.150165 -0.931808 -2.37256 2.40645 1.63946 0.725712 0.425768
0.239318 -0.192324 -0.940578 1.83274 -1.77821 3.71579 0.72568 0.399115
0.417121 -0.435628 -0.994803 0.247176 -0.166703 -0.0267523 0.908399 0.291223
0.24825 -0.143359 -0.992336 1.52729 2.12104 -1.45069 0.883739 0.332918
0.386856 -0.342455 -0.959459 1.32205 0.172998 1.11579 0.838884 0.357117
0.195974 -0.138447 -0.994765 -1.04195 2.22159 -1.59378 0.72355 0.381807
0.219669 -0.572465 -0.993944 -0.00423304 -0.179202 -0.00664622 0.742827 0.243147
0.217106 -0.227192 -0.961392 -0.278367 -1.7934 5.80492 0.678109 0.38703
0.0242718 -0.41525 -0.989635 -0.247343 -0.110747 -0.0100484 0.544658 0.284933
0.258716 -0.251935 -0.636153 2.29393 -2.64249 -4.97537 0.723751 0.357014
0.25736 -0.00803099 -0.658738 1.70665 -0.155633 -5.93363 0.682565 0.476091
0.0436747 0.41034 -0.154855 0.315353 3.15472 5.39596 0.566131 0.683425
0.274196 0.539524 -0.338564 4.94379 2.38474 2.89578 0.766753 0.792798
0.138912 0.522934 -0.215636 1.72812 2.57415 5.28375 0.672893 0.727455
0.103862 0.849473 -0.372238 -0.0530514 0.582725 -0.132942 0.658709 0.831797
0.0358627 0.737805 -0.310945 -2.65146 2.28199 3.4046 0.531704 0.899937
0.234454 0.487654 -0.254934 3.66607 2.52107 4.31058 0.72813 0.751942
0.117784 0.573286 -0.260994 -2.02659 -1.45108 -5.28278 0.589752 0.761795
0.212136 0.762346 -0.419696 0.359702 0.380048 -0.479424 0.612937 0.923971
0.199424 0.569564 -0.310906 -3.61142 -0.836643 -4.63852 0.693607 0.773518
0.112173 0.791532 -0.365226 -2.34604 -1.62717 -5.52317 0.644268 0.871261
0.268924 0.614541 -0.402322 0.731371 0.216619 -1.10756 0.744626 0.833183
0.0329468 0.754589 -0.339729 -2.29005 0.506501 -1.34609 0.522858 0.920129
3.87512e-05 0.503282 -0.218717 -0.13459 3.23665 4.72814 0.514683 0.87234
0.0597001 0.504508 -0.227562 -0.0583375 0.741569 -0.47257 0.606888 0.785906
0.291768 0.497434 -0.39443 3.9803 2.44389 -1.55034 0.727096 0.787817
0.17076 0.690623 -0.45534 3.98055 3.21258 3.50473 0.645171 0.858172
0.299749 0.270587 -0.189874 3.97572 2.93349 3.85662 0.775694 0.673702
0.154719 0.333122 -0.13677 1.92068 3.18301 5.04401 0.668869 0.702842
0.0276687 0.0518171 0.0840731 0.217781 2.91114 5.48093 0.5 0.588586
0.118972 -0.164599 0.171023 1.01277 1.92665 5.75099 0.557057 0.422499
0.0931781 -0.600168 0.43246 5.39765 -2.28784 1.42284 0.604941 0.22825
0.156069 -0.483241 0.676604 5.04853 -0.586366 -1.64175 0.630523 0.250978
0.0665323 -0.783386 0.76987 3.70853 -1.80516 0.14563 0.564086 0.112561
-0.234146 -0.576427 -0.468632 -1.74258 -3.27928 -4.89352 0.277107 0.196953
-0.306531 -0.58779 -0.422519 -3.10456 -3.63431 -3.70639 0.217586 0.204818
-0.223016 0.290633 -0.139328 -2.8723 3.10749 4.60366 0.254274 0.597328
-0.174826 0.541048 -0.298773 0.469245 2.44971 -0.848548 0.329968 0.816388
-0.0730676 0.732282 -0.418841 -1.66819 3.22023 5.02128 0.379989 0.839199
-0.257699 0.593673 -0.488052 -5.21169 3.15468 1.26983 0.208916 0.761248
-0.242441 0.63146 -0.53748 -5.08345 2.53574 -1.63796 0.195554 0.742718
-0.150368 0.734112 -0.588999 -3.46483 2.03784 -4.52232 0.284923 0.806462
0.0686664 0.759495 -0.618705 1.04516 1.71787 -5.66381 0.466159 0.833763
-0.227096 -0.750829 0.0554342 -4.18246 -3.4452 2.85394 0.312473 0.0995889
0.00907709 -0.543319 1.01319 0.175245 -0.80742 4.82963 0.478003 0.262373
-0.0261823 -0.808434 0.794345 -2.41293 -1.76956 2.77123 0.450383 0.117772
-0.0909968 -0.88061 0.0207888 -2.15765 -5.27663 1.39525 0.458983 0.0612293
-0.119798 -0.876685 -0.0683835 -2.28515 -5.41363 -0.43607 0.447174 0.0570988
-0.412499 0.0534695 -0.595037 -3.85449 0.194474 -4.47506 0.126239 0.515271
-0.29335 -0.00493325 -0.647335 -2.11549 -0.31954 -5.78616 0.187675 0.535515
-0.248788 0.215343 -0.648276 -1.63822 0.548525 -5.98224 0.193815 0.558257
-0.263576 0.478603 -0.605073 -3.46295 1.50909 -4.60843 0.330811 0.805377
-0.422725 -0.583529 -0.172543 -5.39448 -2.52861 0.15581 0.0898292 0.219418
-0.0845177 0.161765 0.0103892 -0.795272 3.4098 5.15267 0.386055 0.563849
-0.233246 0.0437745 0.0474955 -2.09793 2.98359 4.96252 0.316862 0.560161
-0.367109 -0.511494 -0.432021 -3.84742 -2.96924 -3.63651 0.105307 0.275745
-0.131427 0.58375 -0.637033 -1.52376 1.13419 -5.8802 0.312852 0.713191
-0.0963387 -0.489802 0.979318 -3.14197 0.3878 3.42207 0.364687 0.269438
-0.192816 -0.502519 0.192585 -4.10234 0.267154 4.64556 0.363323 0.255163
-0.312818 -0.0953494 0.0777318 -2.95553 2.01896 4.99484 0.23383 0.469235
-0.399909 -0.182368 0.0391907 -4.28425 0.875567 4.24533 0.10149 0.446034
-0.343967 0.00519048 0.00385128 -3.47151 2.78859 4.28584 0.173055 0.543737
-0.0744883 -1.01899 0.6631 -0.347496 -0.426234 -0.167841 0.4401 0.011533
-0.0221268 -0.713095 0.71188 -1.7353 -1.49745 -3.93666 0.435303 0.101183
-0.140613 -0.161951 0.164952 -1.1373 1.96022 5.73815 0.32115 0.397396
-0.0653641 0.876256 -0.480778 -2.39849 2.07391 5.13045 0.39444 0.926264
-0.117701 -0.566117 -0.496899 -0.642614 -3.01739 -5.41358 0.335222 0.238153
-0.141407 0.832298 -0.531326 -3.96221 2.72553 -0.276535 0.365492 0.903269
-0.0739313 0.823027 -0.596891 -1.68526 2.27531 -5.05443 0.424176 0.886588
-0.454284 -0.117467 -0.0506712 -5.13325 1.29614 3.04064 0.0616891 0.408664
-0.488589 -0.10667 -0.141224 -5.83129 1.06527 1.48361 0.0259366 0.45701
-0.407634 -0.0145499 -0.0449318 -4.41729 2.47785 3.45912 0.117853 0.552619
-0.443404 0.019749 -0.144562 -5.29261 2.41924 2.18824 0.081514 0.561145
-0.496887 -0.209477 -0.424482 -5.69247 -0.957852 -1.69393 0.0368138 0.345713
-0.443566 -0.458385 -0.361334 -5.17334 -2.43193 -2.12133 0.0889717 0.246768
-0.330646 -0.489697 0.0817368 -4.50533 -1.16816 4.09121 0.14114 0.259213
-0.367099 -0.669955 -0.109801 -4.85452 -3.41794 0.768454 0.153989 0.16998
-0.281356 -0.212617 0.130681 -2.82236 1.00496 5.341 0.205606 0.357092
-0.234563 -0.127756 -0.654915 -1.08274 0.814202 -5.78005 0.190866 0.470442
-0.384176 -0.16397 -0.58764 -3.73096 -1.13623 -4.73695 0.0918992 0.463041
-0.425244 -0.312852 -0.494374 -4.44109 -1.90679 -3.74505 0.0556372 0.404911
-0.336049 -0.347103 -0.548275 -2.82465 -2.51198 -4.89203 0.153553 0.3353
-0.205166 -0.404096 -0.557447 -1.08815 -2.83796 -5.485 0.269143 0.285671
-0.290801 -0.745169 -0.191535 -3.61071 -4.56122 -1.40728 0.284006 0.104502
-0.245153 -0.186405 -0.661705 -4.41087 -0.752745 -3.77741 0.234326 0.407744
-0.130463 -0.364026 0.737866 -3.91645 3.67247 -0.423853 0.353205 0.302046
-0.169968 -0.448251 0.759141 -5.37894 0.880045 0.0914877 0.351388 0.253369
-0.0974548 -0.368267 0.865479 -3.34899 3.7746 2.2296 0.466919 0.32095
-0.11172 -0.715607 0.246089 -4.40628 -3.00843 3.03172 0.402091 0.138796
-0.148605 -0.609962 0.757134 -4.1109 -2.26408 -0.903236 0.366135 0.218466
-0.214615 -0.618066 0.150086 -4.64934 -1.55469 3.89166 0.254808 0.230503
-0.372222 -0.591599 -0.0121773 -4.96802 -2.08432 2.74541 0.185282 0.170189
-0.0391585 -0.563394 0.580416 -2.22658 -5.5086 1.64552 0.434192 0.228252
-0.0187576 -0.311091 0.788418 -0.307841 5.29853 0.802548 0.46676 0.336861
-0.212985 -0.688705 -0.371846 -2.14399 -4.53852 -3.47703 0.248851 0.164894
-0.368673 0.387709 -0.511822 -5.21965 2.30041 -1.35273 0.164838 0.713221
-0.361791 -0.642641 -0.264019 -4.39473 -3.80194 -1.90372 0.173448 0.158802
-0.128649 -0.837793 -0.173547 -2.05711 -5.30486 -2.4057 0.33499 0.0981218
-0.387486 0.144249 -0.60135 -3.48221 0.876837 -4.84816 0.108389 0.582302
-0.13318 -0.483877 0.633766 -5.35518 -1.43196 -1.25792 0.386385 0.256944
-0.107016 -0.508689 0.411774 -5.6379 1.60526 -0.436436 0.396626 0.25825
-0.0240726 -0.647032 0.440136 -1.21447 -4.97568 3.02353 0.457089 0.161384
0.0435609 -0.573011 0.558265 2.30098 -5.27018 1.80286 0.478288 0.206878
-0.0417267 -0.833819 0.174859 -1.49045 -4.76165 2.86925 0.444479 0.100927
-0.134355 -0.55191 0.276918 -5.45959 0.468871 2.69379 0.38519 0.250946
-0.32856 0.434224 -0.371847 -5.61013 2.4881 1.15931 0.134192 0.678987
-0.413516 0.271682 -0.451688 -5.75121 2.29705 0.387399 0.145744 0.67223
-0.368511 0.253095 -0.260016 -4.9339 2.78391 2.56746 0.140251 0.627505
-0.430289 0.178028 -0.313643 -5.47164 2.57423 1.44462 0.0969741 0.607231
-0.462819 -0.340685 -0.0704152 -5.61035 -1.10235 2.24289 0.0355275 0.311599
-0.486305 0.0378449 -0.327919 -5.92842 1.63453 0.722195 0.0230899 0.506857
-0.484403 -0.232881 -0.0929411 -5.77898 -0.106169 1.97238 0.0114185 0.396812
-0.499184 -0.295342 -0.203796 -6.09991 -0.762469 0.47942 0.00321573 0.402601
-0.471969 -0.427164 -0.282705 -5.89799 -1.72778 -0.534136 0.0288677 0.315453
-0.490389 -0.0744693 -0.490742 -5.3262 -0.146472 -2.40369 0.0125782 0.439963
-0.43253 0.191625 -0.532861 -5.20807 1.58541 -2.51319 0.0771667 0.604125
-0.462232 0.145534 -0.466039 -5.84101 1.60477 -0.620992 0.0442082 0.55186
-0.506847 -0.0704402 -0.350713 -6.16609 0.482919 -0.0551904 0 0.42944
-0.30421 -0.393206 0.122923 -3.74009 -0.253318 4.91217 0.241014 0.318
-0.421962 -0.269225 0.0162607 -4.91235 -0.309533 3.70877 0.120384 0.321978
0.00148928 -0.576355 0.660162 -0.0366712 -4.56058 -3.13965 0.469885 0.216606
-0.26747 -0.765825 -0.0424784 -4.14075 -4.20259 1.26399 0.199202 0.145748
-0.150496 -0.245117 -0.656202 -0.0114333 -2.14797 -5.70288 0.435608 0.349615
-0.113524 -0.65959 -0.433466 -0.697285 -4.12902 -4.53364 0.429216 0.148625
-0.207551 -0.214469 -0.695363 1.18796 -1.78657 -2.44765 0.284533 0.396299
-0.202698 -0.155197 -0.9249 2.41724 2.55363 2.12608 0.274288 0.425768
-0.234944 -0.203955 -0.955842 -2.35693 -1.1858 4.68809 0.27432 0.399115
-0.417123 -0.435607 -0.994798 -0.267898 -0.167886 -0.0262855 0.0916005 0.291223
-0.240136 -0.520927 -0.989294 -0.125162 -0.669771 -0.0379089 0.269934 0.248648
-0.386856 -0.342456 -0.959459 -1.07622 0.132674 0.996407 0.161116 0.357117
-0.24827 -0.143376 -0.992636 -1.39137 1.85464 -1.24698 0.176225 0.3706
-0.179908 -0.259414 -0.965446 -0.0621914 -1.02206 6.01064 0.321891 0.38703
-0.186797 -0.152055 -0.936204 2.27821 2.28022 1.99434 0.469762 0.304819
-0.218951 -0.436412 -0.958575 -1.14208 -0.830934 4.90606 0.283964 0.220736
-0.0881431 -0.442076 -0.997008 0.567538 -0.256703 -0.0839887 0.343505 0.256845
-0.187009 -0.143044 -0.994643 1.32171 2.00115 -1.58518 0.383443 0.281059
-0.258716 -0.251935 -0.636152 -2.3267 -2.56967 -5.03097 0.276249 0.357014
-0.113097 -0.0169867 -0.684803 -0.835723 -0.0992707 -6.17961 0.317435 0.476091
-0.045094 0.411764 -0.155178 -0.200955 3.16394 5.40149 0.459591 0.712641
-0.115339 0.350604 -0.132801 -1.51788 3.10367 5.22464 0.433869 0.683425
-0.274196 0.539524 -0.338564 -4.9438 2.38474 2.89578 0.250042 0.792491
-0.0980766 0.767472 -0.327746 -1.55908 2.46248 5.15828 0.468296 0.899937
-0.234454 0.487654 -0.254934 -3.69944 2.59179 4.25356 0.247751 0.71358
-0.117784 0.573286 -0.260994 2.06295 -1.43669 -5.28759 0.410248 0.761795
-0.212136 0.762346 -0.419696 -0.272439 0.342767 -0.373649 0.387063 0.923971
-0.199424 0.569564 -0.310906 3.61142 -0.836643 -4.63852 0.306393 0.773518
-0.112173 0.791532 -0.365226 2.39892 -1.92249 -5.39014 0.355732 0.871261
-0.0526049 0.942838 -0.380067 0.028897 0.123033 -0.0215065 0.471551 0.960685
-0.268924 0.614541 -0.402322 -0.731371 0.21662 -1.10755 0.255374 0.833183
-0.01024 0.752165 -0.334473 0.853455 0.0595917 -0.0867169 0.477142 0.920129
-0.059314 0.542392 -0.214638 0.476775 2.6449 5.51449 0.443263 0.749305
-0.0597001 0.504508 -0.227562 0.099748 0.793546 -0.505913 0.393112 0.785906
-0.291768 0.497434 -0.39443 -3.96576 2.43878 -1.49887 0.272904 0.787817
-0.16824 0.694748 -0.456268 -3.88087 3.2173 3.68825 0.323986 0.833282
-0.299749 0.270587 -0.189874 -3.97561 2.93558 3.85491 0.224306 0.673702
-0.145196 0.494432 -0.204769 -1.84284 2.62739 5.27208 0.331131 0.702842
-0.0970927 0.0119752 0.0972818 -0.750464 2.6944 5.55517 0.440754 0.460425
0.0324609 -0.371913 0.242943 1.19513 3.61866 4.37944 0.463084 0.316092
-0.0911147 -0.391851 0.233352 -2.81141 2.43271 4.65755 0.469814 0.297209
-0.0931781 -0.600168 0.43246 -4.82796 -2.87533 1.6116 0.395059 0.22825
3 75 77 85 
3 0 55 1 
3 88 1 55 
3 88 33 1 
3 2 120 19 
3 103 19 120 
3 118 7 4 
3 118 5 56 
3 29 56 14 
3 118 56 34 
3 29 34 56 
3 6 134 21 
3 8 51 50 
3 10 15 68 
3 8 68 15 
3 8 65 68 
3 136 22 23 
3 9 137 67 
3 137 125 67 
3 155 28 154 
3 23 22 25 
3 24 69 50 
3 11 52 10 
3 52 15 10 
3 57 0 20 
3 46 20 47 
3 101 45 47 
3 45 46 47 
3 60 12 102 
3 60 102 13 
3 14 21 134 
3 14 134 29 
3 87 8 15 
3 87 15 48 
3 15 52 48 
3 75 51 16 
3 17 19 18 
3 17 2 19 
3 0 47 20 
3 65 8 50 
3 65 50 69 
3 22 67 86 
3 116 7 115 
3 56 5 71 
3 81 60 14 
3 13 3 21 
3 13 21 14 
3 67 22 136 
3 24 70 69 
3 26 27 43 
3 155 125 28 
3 137 28 125 
3 43 27 122 
3 27 18 122 
3 34 29 30 
3 31 34 30 
3 160 30 134 
3 33 90 47 
3 33 47 1 
3 47 0 1 
3 31 118 34 
3 26 85 35 
3 77 35 85 
3 77 36 35 
3 37 35 38 
3 36 38 35 
3 38 36 73 
3 38 74 37 
3 26 35 37 
3 39 40 46 
3 20 46 40 
3 57 20 40 
3 57 40 16 
3 75 41 51 
3 51 42 16 
3 84 26 43 
3 27 26 37 
3 27 37 17 
3 18 27 17 
3 2 17 119 
3 37 119 17 
3 37 74 119 
3 61 102 44 
3 61 44 32 
3 3 102 61 
3 39 46 80 
3 80 46 45 
3 86 155 212 
3 91 101 32 
3 12 45 49 
3 12 49 44 
3 101 49 45 
3 25 62 185 
3 62 54 185 
3 25 22 86 
3 70 64 69 
3 86 212 124 
3 86 124 25 
3 23 25 185 
3 84 24 41 
3 24 50 41 
3 41 50 51 
3 11 53 52 
3 65 193 68 
3 195 68 193 
3 212 194 124 
3 14 60 13 
3 56 72 81 
3 81 14 56 
3 57 55 0 
3 57 58 55 
3 58 59 55 
3 57 16 42 
3 48 58 57 
3 53 59 52 
3 53 89 59 
3 58 52 59 
3 29 134 30 
3 81 12 60 
3 12 44 102 
3 80 45 12 
3 124 62 25 
3 62 70 54 
3 63 64 62 
3 123 194 65 
3 66 54 70 
3 65 194 193 
3 124 63 62 
3 137 154 28 
3 9 67 136 
3 195 10 68 
3 86 67 125 
3 155 86 125 
3 56 71 72 
3 74 38 73 
3 74 73 72 
3 36 76 73 
3 75 78 77 
3 83 36 78 
3 77 78 36 
3 36 83 76 
3 40 39 79 
3 73 76 82 
3 73 82 72 
3 72 82 81 
3 12 81 80 
3 82 80 81 
3 80 82 83 
3 82 76 83 
3 83 39 80 
3 78 39 83 
3 39 78 79 
3 75 16 78 
3 16 79 78 
3 84 43 24 
3 85 26 84 
3 84 41 85 
3 41 75 85 
3 40 79 16 
3 42 51 87 
3 8 87 51 
3 57 42 48 
3 42 87 48 
3 58 48 52 
3 32 90 214 
3 33 88 89 
3 55 59 88 
3 59 89 88 
3 3 6 21 
3 49 101 91 
3 92 91 44 
3 44 49 92 
3 91 93 49 
3 49 95 92 
3 91 92 93 
3 95 49 93 
3 93 92 99 
3 98 97 94 
3 94 95 96 
3 99 98 94 
3 93 99 96 
3 94 96 99 
3 95 93 96 
3 94 97 95 
3 92 97 100 
3 98 99 100 
3 92 100 99 
3 97 98 100 
3 97 92 95 
3 44 91 32 
3 47 90 32 
3 47 32 101 
3 3 13 102 
3 72 71 74 
3 71 104 74 
3 108 104 110 
3 107 103 105 
3 108 74 104 
3 105 108 106 
3 107 105 106 
3 110 106 108 
3 113 111 112 
3 109 111 4 
3 111 113 117 
3 112 111 109 
3 116 115 114 
3 109 116 114 
3 114 112 109 
3 110 113 112 
3 111 117 4 
3 110 104 113 
3 107 115 103 
3 104 71 113 
3 117 113 71 
3 114 115 107 
3 114 107 106 
3 106 112 114 
3 112 106 110 
3 116 109 4 
3 4 7 116 
3 117 118 4 
3 117 5 118 
3 31 7 118 
3 71 5 117 
3 74 108 119 
3 2 119 108 
3 2 108 120 
3 108 105 120 
3 105 103 120 
3 121 19 103 
3 19 121 18 
3 18 121 122 
3 249 66 70 
3 43 122 249 
3 43 249 24 
3 70 24 249 
3 64 70 62 
3 65 69 64 
3 64 123 65 
3 123 64 63 
3 63 194 123 
3 194 63 124 
3 211 203 201 
3 126 158 215 
3 215 186 126 
3 186 127 126 
3 128 146 231 
3 146 145 231 
3 229 142 3 
3 245 129 130 
3 132 133 143 
3 245 159 131 
3 159 132 131 
3 132 159 133 
3 6 148 134 
3 183 135 182 
3 195 180 135 
3 135 138 195 
3 23 149 136 
3 9 136 149 
3 150 182 196 
3 11 138 139 
3 11 10 138 
3 181 9 149 
3 188 147 127 
3 172 173 147 
3 228 173 171 
3 172 171 173 
3 190 141 140 
3 141 190 142 
3 148 143 133 
3 213 139 138 
3 213 138 135 
3 201 144 183 
3 145 146 248 
3 127 147 173 
3 180 196 182 
3 180 182 135 
3 115 7 243 
3 187 197 131 
3 131 132 187 
3 190 207 143 
3 6 3 142 
3 6 142 148 
3 142 143 148 
3 196 66 250 
3 196 250 150 
3 149 179 178 
3 152 169 151 
3 179 149 23 
3 146 128 153 
3 169 156 151 
3 248 146 156 
3 146 151 156 
3 30 160 159 
3 30 159 157 
3 160 148 133 
3 30 157 31 
3 126 127 173 
3 173 174 126 
3 174 158 126 
3 130 157 245 
3 7 31 157 
3 7 157 130 
3 159 245 157 
3 133 159 160 
3 160 134 148 
3 161 162 203 
3 203 211 161 
3 211 152 161 
3 162 161 164 
3 161 163 164 
3 163 199 164 
3 200 162 164 
3 152 163 161 
3 172 166 165 
3 147 166 172 
3 147 188 166 
3 144 166 188 
3 201 183 167 
3 183 144 168 
3 169 152 210 
3 151 146 153 
3 163 152 151 
3 163 151 153 
3 246 199 163 
3 163 153 246 
3 153 128 246 
3 170 141 229 
3 61 214 170 
3 61 170 229 
3 3 61 229 
3 165 206 172 
3 206 171 172 
3 174 173 228 
3 158 33 215 
3 216 214 228 
3 140 170 176 
3 140 176 171 
3 171 176 228 
3 178 179 177 
3 185 177 179 
3 194 212 184 
3 149 178 181 
3 185 179 23 
3 193 251 180 
3 180 195 193 
3 196 192 66 
3 10 195 138 
3 181 191 212 
3 181 212 155 
3 250 210 150 
3 210 167 150 
3 182 150 167 
3 183 182 167 
3 189 53 139 
3 11 139 53 
3 191 184 212 
3 142 190 143 
3 187 207 198 
3 187 143 207 
3 186 175 127 
3 175 188 127 
3 89 189 186 
3 175 186 189 
3 175 168 188 
3 144 188 168 
3 132 143 187 
3 175 189 139 
3 89 53 189 
3 207 190 140 
3 170 140 141 
3 206 140 171 
3 32 214 61 
3 251 184 191 
3 177 185 54 
3 54 66 177 
3 191 177 192 
3 194 184 193 
3 251 193 184 
3 178 177 191 
3 9 181 155 
3 187 198 197 
3 199 200 164 
3 200 199 198 
3 162 200 202 
3 204 201 203 
3 209 204 162 
3 204 203 162 
3 209 162 202 
3 166 205 165 
3 200 198 208 
3 200 208 202 
3 198 207 208 
3 140 206 207 
3 206 208 207 
3 206 209 208 
3 202 208 209 
3 206 165 209 
3 165 204 209 
3 165 205 204 
3 205 144 204 
3 201 204 144 
3 250 169 210 
3 201 167 211 
3 210 211 167 
3 210 152 211 
3 166 144 205 
3 135 183 213 
3 183 168 213 
3 213 168 175 
3 213 175 139 
3 90 174 214 
3 33 89 215 
3 186 215 89 
3 130 243 7 
3 90 33 158 
3 174 90 158 
3 228 176 216 
3 217 170 216 
3 217 176 170 
3 216 176 218 
3 217 222 176 
3 216 218 217 
3 176 222 218 
3 217 224 222 
3 226 220 219 
3 226 219 227 
3 222 219 221 
3 220 218 219 
3 218 220 225 
3 221 219 218 
3 222 221 218 
3 226 225 220 
3 227 219 222 
3 223 224 217 
3 225 223 218 
3 223 217 218 
3 225 226 223 
3 227 224 226 
3 223 226 224 
3 224 227 222 
3 170 214 216 
3 214 174 228 
3 141 142 229 
3 230 247 231 
3 128 231 247 
3 232 197 199 
3 198 199 197 
3 103 115 230 
3 232 234 236 
3 247 230 242 
3 232 199 234 
3 233 234 247 
3 247 242 233 
3 236 234 233 
3 239 236 233 
3 238 237 240 
3 243 241 115 
3 235 129 237 
3 237 244 240 
3 235 237 238 
3 238 241 235 
3 241 243 235 
3 238 240 236 
3 129 244 237 
3 240 232 236 
3 242 230 241 
3 244 197 240 
3 197 232 240 
3 233 242 241 
3 241 239 233 
3 239 241 238 
3 241 230 115 
3 239 238 236 
3 129 235 243 
3 129 243 130 
3 244 129 245 
3 131 244 245 
3 197 244 131 
3 199 246 234 
3 128 234 246 
3 128 247 234 
3 231 145 230 
3 121 103 145 
3 103 230 145 
3 121 145 248 
3 122 121 248 
3 122 248 156 
3 249 122 156 
3 249 156 250 
3 66 249 250 
3 250 156 169 
3 192 177 66 
3 180 192 196 
3 180 251 192 
3 191 192 251 
3 191 181 178 
3 137 9 155 
3 154 137 155 
