ply
format ascii 1.0
comment VCGLIB generated
element vertex 6
property float x
property float y
property float z
property float nx
property float ny
property float nz
property float texture_u
property float texture_v
element face 8
property list uchar int vertex_indices
property list uchar float texcoord
end_header
1 0 0 1 0 0 1 0.5
0 1 0 0 1 0 0.5 1
0 0 1 0 0 1 0.5 0.5
-1 0 0 -1 0 0 0 0.5
0 -1 0 0 -1 0 0.5 0
0 0 -1 0 0 -1 0.5 0.5
3 0 1 2 6 1 0.5 0.5 1 0.5 0.5 
3 0 2 4 6 1 0.5 0.5 0.5 0.5 0 
3 0 4 5 6 1 0.5 0.5 0 0.5 0.5 
3 0 5 1 6 1 0.5 0.5 0.5 0.5 1 
3 3 1 5 6 0 0.5 0.5 1 0.5 0.5 
3 3 5 4 6 0 0.5 0.5 0.5 0.5 0 
3 3 4 2 6 0 0.5 0.5 0 0.5 0.5 
3 3 2 1 6 0 0.5 0.5 0.5 0.5 1 
