<?xml version="1.0"?>
<svg width="640" height="400" xmlns="http://www.w3.org/2000/svg" xmlns:svg="http://www.w3.org/2000/svg" xmlns:se="http://svg-edit.googlecode.com" xmlns:xlink="http://www.w3.org/1999/xlink">
 <!-- Created with SVG-edit - https://github.com/SVG-Edit/svgedit-->
 <defs>
  <symbol data-name="Layer 1" id="svg_2" viewBox="0 0 221.29 40.2" xmlns="http://www.w3.org/2000/svg">
   <defs>
    <style>.cls-1{fill:#fff;}.cls-2{fill:#a8a8a8;}</style>
   </defs>
   <title>logo_wide_1200px</title>
   <path class="cls-1" d="m188.85,396.52c0,-0.71 0,-1.41 0,-2.12a18.47,18.47 0 0 1 12.61,-17.15a17.28,17.28 0 0 1 11.94,0.43a7.41,7.41 0 0 0 0.75,0.26a18.61,18.61 0 0 1 13.61,19.59a18.37,18.37 0 0 1 -9.47,14.9a3.74,3.74 0 0 0 -0.58,0.4a17.59,17.59 0 0 1 -23.1,-1.18a18.41,18.41 0 0 1 -5.56,-10.72a19.79,19.79 0 0 1 -0.2,-3.92c0,-0.16 0,-0.33 0,-0.49zm18.51,-16.13a18.15,18.15 0 0 0 -5.86,0.89a7.62,7.62 0 0 0 -3.67,2.27l-0.19,0.19a17.59,17.59 0 0 0 -4.11,17.14a16.86,16.86 0 0 0 9.18,11.1a2.64,2.64 0 0 0 0.66,0.25a23.62,23.62 0 0 0 2.49,0.34a16.14,16.14 0 0 0 10.4,-2.92a17.37,17.37 0 0 0 7.27,-11.31a7.77,7.77 0 0 0 0.2,-2.14a16.76,16.76 0 0 0 -3.32,-8.78a16.44,16.44 0 0 0 -13.05,-7.03zm11.74,0.9l-0.09,0.08c0.13,0.11 0.29,0.21 0.41,0.33a18.73,18.73 0 0 1 5.4,13.95c0,0.59 0,1.18 0,1.77a19.44,19.44 0 0 1 -0.25,3.74a18.71,18.71 0 0 1 -2.6,6.91a2.47,2.47 0 0 0 -0.15,0.34c7.53,-7.48 6.51,-21.11 -2.72,-27.12zm-21.41,28.5a19.21,19.21 0 0 1 -2.69,-24.27c-0.06,0 -0.1,0 -0.11,0l-0.28,0.28a17.82,17.82 0 0 0 -4.44,8.95a7.33,7.33 0 0 0 -0.18,2.19a18.12,18.12 0 0 0 2.57,7.51a16.62,16.62 0 0 0 5.13,5.34zm15.38,4.52c-0.26,0 -0.52,0.09 -0.79,0.12l-0.79,0.1a17.72,17.72 0 0 1 -8.27,-1.22a4.7,4.7 0 0 0 -0.66,-0.24a18,18 0 0 1 -11.68,-9.47l-0.19,-0.32c2.75,9.78 13.55,14.91 22.38,11.03zm9.93,-24.57a0.67,0.67 0 0 0 0,-0.12a0.79,0.79 0 0 0 0,-0.13a17.31,17.31 0 0 0 -9.13,-10.49a3,3 0 0 0 -0.75,-0.25a16.49,16.49 0 0 0 -9.17,0.76l-0.29,0.13a17.94,17.94 0 0 1 11.34,1.8a18.37,18.37 0 0 1 8,8.3zm-32.35,0l0.08,-0.06c0.07,-0.13 0.14,-0.26 0.2,-0.39a18.48,18.48 0 0 1 7.25,-7.62a9,9 0 0 0 0.91,-0.61a17.61,17.61 0 0 1 6.73,-3.21c0.65,-0.15 1.31,-0.26 2,-0.39c-6.6,-0.68 -14.75,3.87 -17.19,12.31l0.02,-0.03zm18.12,23.79l0.3,0a16.13,16.13 0 0 0 7.88,-1.59a4.13,4.13 0 0 0 1,-0.65a17.22,17.22 0 0 0 4.67,-6.72c0.19,-0.48 0.35,-1 0.52,-1.44c-3.14,5.87 -7.8,9.46 -14.39,10.43l0.02,-0.03z" id="svg_1" transform="translate(-188.84 -376.39)"/>
   <path class="cls-1" d="m294.78,412l-2.84,0l0,-10.67a12,12 0 0 0 -0.5,-3.76a11,11 0 0 0 -0.42,-1a3.8,3.8 0 0 0 -2.88,-2.23a6.24,6.24 0 0 0 -2.51,0a4.69,4.69 0 0 0 -3.1,2.17a7.14,7.14 0 0 0 -1.09,3a17.63,17.63 0 0 0 -0.16,2.29c0,3.19 0,6.38 0,9.56l0,0.52a14.24,14.24 0 0 1 -2.86,0l0,-11.62a12,12 0 0 0 -0.34,-2.93c-0.06,-0.23 -0.14,-0.45 -0.22,-0.67a3.69,3.69 0 0 0 -3.05,-2.38a5.35,5.35 0 0 0 -5.78,2.91a9.1,9.1 0 0 0 -1,3.81c0,0.34 0,0.68 0,1l0,10l-2.93,0c0,-0.16 0,-0.33 0,-0.5c0,-4.44 0,-8.88 0,-13.32c0,-1.77 -0.07,-3.54 -0.11,-5.31c0,-0.15 0,-0.29 0,-0.44a12.91,12.91 0 0 1 2.72,0l0.17,3.26c0.1,-0.13 0.16,-0.2 0.21,-0.28a7.53,7.53 0 0 1 8.25,-3.32a5.87,5.87 0 0 1 3.79,3.21c0.06,0.11 0.11,0.21 0.16,0.32s0.08,0.19 0.15,0.33c0.09,-0.14 0.16,-0.24 0.22,-0.35a7,7 0 0 1 5.08,-3.61a9.32,9.32 0 0 1 4.42,0.27a6.22,6.22 0 0 1 4,4a9.79,9.79 0 0 1 0.61,3.51q0,6 0,11.95c0.03,0.01 0.02,0.11 0.01,0.28z" id="svg_5" transform="translate(-188.84 -376.39)"/>
   <path class="cls-1" d="m369.87,412.53a11,11 0 0 1 -6.5,-2.1a9.73,9.73 0 0 1 -3.88,-6.75a10.77,10.77 0 0 1 0.87,-6.13a9.7,9.7 0 0 1 7.35,-5.56a11.06,11.06 0 0 1 6.38,0.59a9.62,9.62 0 0 1 6.11,7.79a10.47,10.47 0 0 1 -0.95,6.58a9.65,9.65 0 0 1 -7,5.28c-0.76,0.16 -1.57,0.2 -2.38,0.3zm7.47,-10.4c0,-0.51 -0.07,-1 -0.16,-1.54a7.5,7.5 0 0 0 -2.7,-4.82a7.2,7.2 0 0 0 -5,-1.57a6.93,6.93 0 0 0 -5.69,3.15a8.93,8.93 0 0 0 0,9.54a6.7,6.7 0 0 0 3.83,2.83a7.76,7.76 0 0 0 3.32,0.24a6.84,6.84 0 0 0 5.45,-3.82a8.84,8.84 0 0 0 0.95,-4.01z" id="svg_6" transform="translate(-188.84 -376.39)"/>
   <path class="cls-1" d="m332.68,412.53a10.8,10.8 0 0 1 -6.92,-2.45a9.77,9.77 0 0 1 -3.45,-6.42a10.78,10.78 0 0 1 0.89,-6.13a9.68,9.68 0 0 1 7.36,-5.54a11,11 0 0 1 6.59,0.69a9.58,9.58 0 0 1 5.88,7.67a10.52,10.52 0 0 1 -1,6.62a9.66,9.66 0 0 1 -7,5.26c-0.73,0.17 -1.55,0.2 -2.35,0.3zm7.49,-10.39c-0.05,-0.51 -0.07,-1 -0.16,-1.54a7.51,7.51 0 0 0 -2.72,-4.85a7.18,7.18 0 0 0 -5,-1.55a6.92,6.92 0 0 0 -5.69,3.14a9,9 0 0 0 0,9.55a6.82,6.82 0 0 0 3.87,2.85a8,8 0 0 0 3.33,0.21a6.77,6.77 0 0 0 5.06,-3.19a8.64,8.64 0 0 0 1.31,-4.62z" id="svg_7" transform="translate(-188.84 -376.39)"/>
   <path class="cls-1" d="m259.16,392.35l2.84,0c0.09,6.53 -0.1,13 0.13,19.57a15.43,15.43 0 0 1 -2.68,0a28.88,28.88 0 0 1 -0.18,-3.26c-0.07,0.05 -0.12,0.06 -0.14,0.09a7,7 0 0 1 -4.24,3.32a8.48,8.48 0 0 1 -5.56,-0.13a6.09,6.09 0 0 1 -3.58,-3.52a9.81,9.81 0 0 1 -0.75,-4c0,-3.89 0,-7.78 0,-11.67l0,-0.46l2.86,0l0,10.89a12.21,12.21 0 0 0 0.37,3.24a6.82,6.82 0 0 0 0.48,1.23a4.27,4.27 0 0 0 3.54,2.32a6.08,6.08 0 0 0 2.58,-0.2a5.59,5.59 0 0 0 3.24,-2.72a9.2,9.2 0 0 0 1.07,-4.6l0,-10.1l0.02,0z" id="svg_8" transform="translate(-188.84 -376.39)"/>
   <path class="cls-1" d="m320.72,412l-2.84,0l0,-0.52c0,-3.5 0,-7 0,-10.49a12.49,12.49 0 0 0 -0.33,-3a4.54,4.54 0 0 0 -4.63,-3.77a5.48,5.48 0 0 0 -5.27,3a8,8 0 0 0 -1,3.28c-0.06,0.61 -0.08,1.23 -0.08,1.85q0,4.55 0,9.07l0,0.58l-2.83,0c-0.1,-6.53 0.12,-13 -0.15,-19.56a12.89,12.89 0 0 1 2.69,0c0.15,1.05 0.14,2.12 0.2,3.25a1.1,1.1 0 0 0 0.15,-0.14a7.13,7.13 0 0 1 4.77,-3.44a8.25,8.25 0 0 1 5.49,0.49a6,6 0 0 1 3,3.2a8.86,8.86 0 0 1 0.8,3.65c0,4.11 0,8.22 0,12.34c0.05,-0.01 0.04,0.06 0.03,0.21z" id="svg_9" transform="translate(-188.84 -376.39)"/>
   <path class="cls-2" d="m388.85,411.93l-3,0c0.06,-0.17 0.11,-0.32 0.17,-0.46l4.65,-10.7l3.48,-8c0.05,-0.11 0.1,-0.22 0.14,-0.33a0.32,0.32 0 0 1 0.33,-0.23l2,0c0.24,0 0.3,0.15 0.37,0.32c0.49,1.13 1,2.27 1.46,3.41q3.35,7.77 6.68,15.55l0.17,0.41a16.34,16.34 0 0 1 -3,0.05c0,-0.12 -0.13,-0.27 -0.19,-0.42l-1.66,-4c-0.17,-0.42 -0.18,-0.42 -0.64,-0.42l-8.54,0c-0.46,0 -0.46,0 -0.64,0.43c-0.55,1.33 -1.09,2.67 -1.64,4c0.01,0.11 -0.08,0.24 -0.14,0.39zm3,-7.26c0.38,0.1 7,0.09 7.38,0c0,-0.15 -0.09,-0.3 -0.15,-0.45c-0.25,-0.65 -0.52,-1.31 -0.78,-2c-0.85,-2.14 -1.69,-4.27 -2.54,-6.4c-0.06,-0.14 -0.07,-0.32 -0.25,-0.38c-0.26,0.56 -3.58,8.91 -3.61,9.23l-0.05,0z" id="svg_10" transform="translate(-188.84 -376.39)"/>
   <path class="cls-1" d="m341.69,392.34l3.2,0l6.36,16.57l0.1,0c1.08,-2.76 2.14,-5.52 3.2,-8.29l3.21,-8.29l3.08,0l-8,19.63l-3.14,0q-3.99,-9.77 -8.01,-19.62z" id="svg_11" transform="translate(-188.84 -376.39)"/>
   <path class="cls-1" d="m242,412l-2.8,0l0,-31.7l2.8,0l0,31.7z" id="svg_12" transform="translate(-188.84 -376.39)"/>
   <path class="cls-1" d="m300.58,412l-2.76,0c-0.09,-0.32 -0.12,-19 0,-19.62l2.76,0c0.06,0.28 0.09,18.91 0,19.62z" id="svg_13" transform="translate(-188.84 -376.39)"/>
   <path class="cls-2" d="m407.5,411.92l0,-19.71l2.57,0c0,0.11 0.05,0.22 0.06,0.33s0,0.29 0,0.44q0,9.13 0,18.27c0,0.21 0,0.43 0,0.67l-2.63,0z" id="svg_14" transform="translate(-188.84 -376.39)"/>
   <path class="cls-1" d="m297.17,384.76a2,2 0 0 1 2.05,-2a2,2 0 1 1 -2.05,2z" id="svg_15" transform="translate(-188.84 -376.39)"/>
   <path class="cls-2" d="m382.41,408.9a1.51,1.51 0 0 1 1.63,1.55a1.63,1.63 0 0 1 -3.26,0a1.54,1.54 0 0 1 1.63,-1.55z" id="svg_16" transform="translate(-188.84 -376.39)"/>
  </symbol>
 </defs>
 <g class="layer">
  <title>Layer 1</title>
  <use id="svg_3" transform="matrix(0.715112 0 0 0.715112 8.32733 9.68536)" x="115.849791" xlink:href="#svg_2" y="66.128615"/>
  <g id="svg_4"/>
 </g>
</svg>